Coordinates
version=1
nRows=13
nColumns=63
inDegrees=yes

Units are S.I. units (second, meters, Newtons, ...)
If the header above contains a line with 'inDegrees', this indicates whether rotational values are in degrees (yes) or radians (no).

endheader
time	pelvis_tilt	pelvis_list	pelvis_rotation	pelvis_tx	pelvis_ty	pelvis_tz	hip_flexion_r	hip_adduction_r	hip_rotation_r	knee_angle_r	knee_angle_r_beta	ankle_angle_r	subtalar_angle_r	mtp_angle_r	hip_flexion_l	hip_adduction_l	hip_rotation_l	knee_angle_l	knee_angle_l_beta	ankle_angle_l	subtalar_angle_l	mtp_angle_l	L5_S1_Flex_Ext	L5_S1_Lat_Bending	L5_S1_axial_rotation	L4_L5_Flex_Ext	L4_L5_Lat_Bending	L4_L5_axial_rotation	L3_L4_Flex_Ext	L3_L4_Lat_Bending	L3_L4_axial_rotation	L2_L3_Flex_Ext	L2_L3_Lat_Bending	L2_L3_axial_rotation	L1_L2_Flex_Ext	L1_L2_Lat_Bending	L1_L2_axial_rotation	L1_T12_Flex_Ext	L1_T12_Lat_Bending	L1_T12_axial_rotation	Abs_r3	Abs_r2	Abs_r1	Abs_t1	Abs_t2	neck_flexion	neck_bending	neck_rotation	arm_flex_r	arm_add_r	arm_rot_r	elbow_flex_r	pro_sup_r	wrist_flex_r	wrist_dev_r	arm_flex_l	arm_add_l	arm_rot_l	elbow_flex_l	pro_sup_l	wrist_flex_l	wrist_dev_l
0.000000	1.722752	-5.972089	89.783780	0.159793	0.996748	0.503354	1.572662	1.752293	-13.927473	12.898838	0.225127	25.099072	11.735627	0.000000	0.367421	-2.650162	-0.744710	8.161085	0.142438	23.064510	3.019973	0.000000	0.093718	0.314535	-0.772700	0.174043	0.418332	-0.820994	0.153969	0.764761	-0.820994	0.107110	0.764761	-0.676113	0.087026	0.641400	-0.627819	0.053550	0.487215	-0.579525	0.669416	3.558084	-4.297528	0.000000	0.000000	25.750120	2.862141	7.151498	9.246410	-5.628188	43.673211	39.456950	21.086246	-5.429327	8.542683	17.768751	-0.345933	61.353958	34.907637	67.428139	5.649139	5.580515
0.016949	1.748364	-6.026703	90.722691	0.158091	0.996976	0.504522	1.883651	1.814553	-13.663871	12.984222	0.226617	25.528452	10.144179	0.000000	0.945928	-2.591654	0.034627	8.781566	0.153267	23.357152	3.196024	0.000000	0.088954	0.318827	-0.953224	0.165196	0.424039	-1.012800	0.146143	0.775195	-1.012800	0.101666	0.775195	-0.834071	0.082603	0.650151	-0.774494	0.050828	0.493862	-0.714918	0.635390	3.606630	-5.301545	0.000000	0.000000	25.362753	2.687902	7.152001	9.678332	-5.553579	43.840458	39.109418	21.505649	-4.878190	7.276158	18.045386	-0.248833	62.789558	34.460982	65.788581	4.644535	4.732041
0.033898	1.755346	-6.077141	91.490703	0.156688	0.997147	0.505454	2.108136	1.857731	-13.455479	13.003814	0.226959	25.851815	8.873280	0.000000	1.433957	-2.536918	0.584460	9.310912	0.162506	23.631954	3.486584	0.000000	0.085361	0.320484	-1.101028	0.158525	0.426244	-1.169843	0.140240	0.779224	-1.169843	0.097559	0.779224	-0.963400	0.079267	0.653531	-0.894586	0.048775	0.496429	-0.825771	0.609728	3.625378	-6.123590	0.000000	0.000000	25.072051	2.555545	7.137953	10.000967	-5.483805	43.999387	38.821185	21.694447	-4.553228	6.416888	18.264606	-0.173384	63.894019	34.117061	64.499083	3.821316	4.097198
0.050847	1.745408	-6.123399	92.100210	0.155565	0.997267	0.506169	2.254363	1.883426	-13.294746	12.964878	0.226280	26.079329	7.894527	0.000000	1.837810	-2.485514	0.926553	9.755574	0.170267	23.889153	3.873769	0.000000	0.082818	0.319748	-1.218524	0.153802	0.425265	-1.294682	0.136062	0.777435	-1.294682	0.094653	0.777435	-1.066208	0.076905	0.652030	-0.990051	0.047322	0.495290	-0.913893	0.591562	3.617053	-6.777064	0.000000	0.000000	24.868192	2.461075	7.110946	10.225449	-5.419614	44.150466	38.589080	21.681395	-4.425552	5.920272	18.431166	-0.118605	64.696907	33.867740	63.530132	3.168720	3.655056
0.067797	1.720261	-6.165474	92.563607	0.154699	0.997340	0.506687	2.330574	1.893236	-13.174119	12.874676	0.224705	26.221165	7.179517	0.000000	2.163788	-2.437000	1.082667	10.122006	0.176662	24.128980	4.339695	0.000000	0.081203	0.316860	-1.308120	0.150802	0.421424	-1.389877	0.133408	0.770413	-1.389877	0.092807	0.770413	-1.144605	0.075405	0.646141	-1.062847	0.046399	0.490816	-0.981090	0.580024	3.584384	-7.275369	0.000000	0.000000	24.741358	2.400497	7.072573	10.362910	-5.361755	44.294160	38.409932	21.495244	-4.466275	5.741714	18.549825	-0.083514	65.227788	33.704884	62.852214	2.675986	3.384682
0.084746	1.681615	-6.203363	92.893289	0.154069	0.997374	0.507026	2.345013	1.888759	-13.086047	12.740469	0.222363	26.287491	6.699846	0.000000	2.418192	-2.390937	1.074567	10.416659	0.181805	24.351670	4.866477	0.000000	0.080394	0.312061	-1.372225	0.149299	0.415041	-1.457989	0.132079	0.758745	-1.457989	0.091882	0.758745	-1.200697	0.074654	0.636355	-1.114933	0.045937	0.483383	-1.029169	0.574245	3.530097	-7.631903	0.000000	0.000000	24.681729	2.369816	7.024424	10.424484	-5.310976	44.430938	38.280569	21.164747	-4.646507	5.836615	18.625339	-0.067129	65.516226	33.620358	62.435814	2.332352	3.265146
0.101695	1.631181	-6.237060	93.101651	0.153654	0.997373	0.507208	2.305926	1.871594	-13.022980	12.569521	0.219380	26.288475	6.427113	0.000000	2.607323	-2.346884	0.924013	10.645986	0.185808	24.557457	5.436234	0.000000	0.080269	0.305592	-1.413249	0.149068	0.406437	-1.501577	0.131875	0.743017	-1.501577	0.091740	0.743017	-1.236593	0.074538	0.623163	-1.148265	0.045866	0.473362	-1.059937	0.573356	3.456918	-7.860069	0.000000	0.000000	24.679484	2.365037	6.968093	10.421304	-5.268024	44.561267	38.197822	20.718658	-4.937360	6.160377	18.662465	-0.068468	65.591789	33.606027	62.251421	2.127055	3.275515
0.118644	1.570670	-6.266562	93.201089	0.153432	0.997343	0.507250	2.221555	1.843337	-12.977365	12.369093	0.215881	26.234286	6.332913	0.000000	2.737482	-2.304401	0.652770	10.816439	0.188782	24.746573	6.031080	0.000000	0.080708	0.297694	-1.433602	0.149883	0.395933	-1.523202	0.132595	0.723814	-1.523202	0.092241	0.723814	-1.254402	0.074946	0.607058	-1.164802	0.046117	0.461128	-1.075202	0.576490	3.367576	-7.973266	0.000000	0.000000	24.724804	2.382164	6.905171	10.364504	-5.233649	44.685613	38.158519	20.185730	-5.309946	6.668402	18.665959	-0.086549	65.484041	33.653757	62.269518	2.049335	3.394858
0.135593	1.501792	-6.291866	93.203995	0.153382	0.997291	0.507174	2.100146	1.805589	-12.941652	12.146448	0.211996	26.135094	6.388844	0.000000	2.814972	-2.263047	0.282599	10.934469	0.190842	24.919253	6.633133	0.000000	0.081588	0.288608	-1.435693	0.151518	0.383849	-1.525424	0.134042	0.701722	-1.525424	0.093247	0.701722	-1.256232	0.075763	0.588530	-1.166501	0.046620	0.447054	-1.076770	0.582778	3.264796	-7.984895	0.000000	0.000000	24.807868	2.417203	6.837251	10.265218	-5.208598	44.804444	38.159488	19.594715	-5.735376	7.316091	18.640580	-0.120392	65.222549	33.755413	62.460593	2.088428	3.602245
0.152542	1.426259	-6.312968	93.122767	0.153483	0.997222	0.506997	1.949941	1.759946	-12.908289	11.908849	0.207849	26.001066	6.566501	0.000000	2.846092	-2.222381	-0.164736	11.006529	0.192100	25.075731	7.224508	0.000000	0.082789	0.278576	-1.421932	0.153747	0.370506	-1.510802	0.136013	0.677329	-1.510802	0.094619	0.677329	-1.244190	0.076877	0.568072	-1.155319	0.047305	0.431514	-1.066449	0.591350	3.151305	-7.908357	0.000000	0.000000	24.918858	2.466157	6.765924	10.134578	-5.193620	44.918226	38.197559	18.974367	-6.184762	8.058847	18.591084	-0.169013	64.836879	33.902860	62.795132	2.233574	3.876742
0.169492	1.345780	-6.329863	92.969798	0.153712	0.997141	0.506741	1.779185	1.708008	-12.869725	11.663557	0.203567	25.842373	6.837483	0.000000	2.837145	-2.181965	-0.667474	11.039071	0.192668	25.216239	7.787323	0.000000	0.084187	0.267837	-1.394727	0.156344	0.356224	-1.481897	0.138311	0.651220	-1.481897	0.096217	0.651220	-1.220386	0.078176	0.546174	-1.133216	0.048104	0.414880	-1.046045	0.601340	3.029830	-7.757052	0.000000	0.000000	25.047952	2.525032	6.692782	9.983718	-5.189463	45.027428	38.269561	18.353438	-6.629215	8.852071	18.522227	-0.231432	64.356596	34.087963	63.243620	2.474011	4.197419
0.186441	1.277500	-6.330812	92.763691	0.154011	0.997049	0.506437	1.592986	1.670553	-12.746699	11.418793	0.199296	25.667726	7.068208	0.000000	2.797821	-2.157301	-1.235931	11.054814	0.192943	25.339608	8.322930	0.000000	0.085624	0.259447	-1.356507	0.159012	0.345064	-1.441288	0.140671	0.630819	-1.441288	0.097859	0.630819	-1.186943	0.079510	0.529064	-1.102162	0.048925	0.401883	-1.017380	0.611602	2.934912	-7.544482	0.000000	0.000000	25.167634	2.560977	6.629197	9.811247	-5.191991	45.016037	38.401290	17.921787	-7.082560	9.641916	18.492252	-0.308621	64.022318	34.284032	63.580578	2.738365	4.427262
0.203390	1.201064	-6.322796	92.453985	0.154471	0.996959	0.506046	1.398894	1.616431	-12.601860	11.179538	0.195120	25.530836	7.441460	0.000000	2.694820	-2.124239	-1.848817	11.009806	0.192157	25.473656	8.768415	0.000000	0.086173	0.250155	-1.302740	0.160032	0.332707	-1.384161	0.141574	0.608228	-1.384161	0.098487	0.608228	-1.139897	0.080020	0.510117	-1.058476	0.049239	0.387491	-0.977055	0.615526	2.829807	-7.245449	0.000000	0.000000	25.273615	2.604786	6.583504	9.615182	-5.192191	44.887280	38.569903	17.620150	-7.477000	10.435492	18.437326	-0.391971	63.627784	34.467621	64.066365	3.126355	4.647408
